<?xml version="1.0" standalone="no"?>
<!DOCTYPE svg PUBLIC "-//W3C//DTD SVG 20010904//EN"
 "http://www.w3.org/TR/2001/REC-SVG-20010904/DTD/svg10.dtd">
<svg version="1.0" xmlns="http://www.w3.org/2000/svg"
 width="260.000000pt" height="260.000000pt" viewBox="0 0 260.000000 260.000000"
 preserveAspectRatio="xMidYMid meet">
<metadata>
Created by potrace 1.11, written by Peter Selinger 2001-2013
</metadata>
<g transform="translate(0.000000,260.000000) scale(0.100000,-0.100000)"
fill="#000000" stroke="none">
<path d="M0 1300 l0 -1300 1300 0 1300 0 0 1300 0 1300 -1300 0 -1300 0 0
-1300z m529 797 l101 -302 0 -500 0 -500 -101 -305 c-56 -168 -107 -308 -113
-312 -6 -4 -16 -2 -23 3 -6 6 -57 146 -112 312 l-101 302 0 500 0 500 100 299
c54 164 104 304 111 312 9 10 15 11 25 3 7 -6 58 -146 113 -312z m401 127
l245 -186 343 -598 342 -599 53 -325 c29 -179 50 -331 46 -337 -4 -7 -14 -9
-22 -6 -9 3 -121 93 -249 200 l-233 195 -358 611 -358 611 -44 290 c-25 159
-45 298 -45 309 0 13 6 21 18 21 9 0 128 -84 262 -186z m1397 -119 l102 -300
0 -505 1 -505 -103 -310 c-86 -256 -107 -310 -122 -310 -15 0 -36 54 -122 310
l-103 310 0 500 0 500 99 297 c54 163 102 302 106 308 4 6 14 10 23 8 13 -2
44 -84 119 -303z"/>
</g>
</svg>
